<svg xmlns="http://www.w3.org/2000/svg" viewBox="0 0 24 24" fill="currentColor">
  <path d="M12 8a4 4 0 1 0 0 8 4 4 0 0 0 0-8Zm0 6a2 2 0 1 1 0-4 2 2 0 0 1 0 4Z"/>
  <path d="m19.43 12.98.97-.78a1 1 0 0 0 .23-1.28l-1.5-2.6a1 1 0 0 0-1.2-.44l-1.16.42a7.6 7.6 0 0 0-1.2-.7l-.18-1.22a1 1 0 0 0-.99-.86h-3a1 1 0 0 0-.99.86l-.18 1.22c-.42.19-.82.43-1.2.7l-1.16-.42a1 1 0 0 0-1.2.44l-1.5 2.6a1 1 0 0 0 .23 1.28l.97.78a7.7 7.7 0 0 0 0 1.4l-.97.78a1 1 0 0 0-.23 1.28l1.5 2.6a1 1 0 0 0 1.2.44l1.16-.42c.38.27.78.51 1.2.7l.18 1.22a1 1 0 0 0 .99.86h3a1 1 0 0 0 .99-.86l.18-1.22c.42-.19.82-.43 1.2-.7l1.16.42a1 1 0 0 0 1.2-.44l1.5-2.6a1 1 0 0 0-.23-1.28l-.97-.78a7.7 7.7 0 0 0 0-1.4Zm-1.98 1.18c.05.6.05.72 0 1.32l-.07.85.67.54.6.48-.66 1.15-.72-.26-.8-.3-.69.5c-.48.34-.58.41-1.14.66l-.78.35-.13.84-.11.76h-1.32l-.11-.76-.13-.84-.78-.35c-.56-.25-.66-.32-1.14-.66l-.69-.5-.8.3-.72.26-.66-1.15.6-.48.67-.54-.07-.85a8.9 8.9 0 0 1 0-1.32l.07-.85-.67-.54-.6-.48.66-1.15.72.26.8.3.69-.5c.48-.34.58-.41 1.14-.66l.78-.35.13-.84.11-.76h1.32l.11.76.13.84.78.35c.56.25.66.32 1.14.66l.69.5.8-.3.72-.26.66 1.15-.6.48-.67.54.07.85Z"/>
</svg>
