<?xml version="1.0" encoding="UTF-8"?>
<svg xmlns="http://www.w3.org/2000/svg" xmlns:xlink="http://www.w3.org/1999/xlink" viewBox="0 0 604.48 685.94">
  <defs>
    <style>
      .cls-1 { fill: url(#fg-25); }
      .cls-2 { fill: url(#fg-20); }
      .cls-3 { fill: url(#fg-4); }
      .cls-4 { fill: url(#fg-13); }
      .cls-5 { fill: url(#fg-5); }
      .cls-6 { fill: #fff; }
      .cls-7 { fill: url(#fg-18); }
      .cls-8 { fill: url(#fg-24); }
      .cls-9 { fill: url(#fg-2); }
      .cls-10 { fill: url(#fg-14); }
      .cls-11 { fill: url(#fg-19); }
      .cls-12 { fill: url(#fg-22); }
      .cls-13 { isolation: isolate; }
      .cls-14 { fill: url(#fg-12); }
      .cls-15 { fill: url(#fg-23); }
      .cls-16 { mix-blend-mode: overlay; opacity: .32; }
      .cls-17 { fill: url(#fg-6); }
      .cls-18 { fill: url(#fg-11); }
      .cls-19 { fill: url(#fg-7); }
      .cls-20 { fill: url(#fg); }
      .cls-21 { fill: url(#fg-8); }
      .cls-22 { fill: url(#fg-16); }
      .cls-23 { fill: url(#fg-17); }
      .cls-24 { fill: url(#fg-3); }
      .cls-25 { fill: url(#fg-10); }
      .cls-26 { fill: url(#fg-21); }
      .cls-27 { fill: url(#fg-15); }
      .cls-28 { fill: url(#fg-9); }
    </style>
    <linearGradient id="fg" x1="50.76" y1="253.32" x2="553.71" y2="253.32" gradientUnits="userSpaceOnUse">
      <stop offset="0" stop-color="#8B2040"/>
      <stop offset=".47" stop-color="#D4556E"/>
      <stop offset="1" stop-color="#6B1228"/>
    </linearGradient>
    <linearGradient id="fg-2" x1="6.79" y1="574.9" x2="594.39" y2="574.9" xlink:href="#fg"/>
    <linearGradient id="fg-3" x1="6.79" y1="574.9" x2="594.39" y2="574.9" xlink:href="#fg"/>
    <linearGradient id="fg-4" x1="6.79" y1="574.9" x2="594.39" y2="574.9" xlink:href="#fg"/>
    <linearGradient id="fg-5" x1="6.79" y1="574.9" x2="594.39" y2="574.9" xlink:href="#fg"/>
    <linearGradient id="fg-6" x1="6.79" y1="574.9" x2="594.39" y2="574.9" xlink:href="#fg"/>
    <linearGradient id="fg-7" x1="6.79" y1="574.9" x2="594.39" y2="574.9" xlink:href="#fg"/>
    <linearGradient id="fg-8" x1="6.79" y1="574.9" x2="594.39" y2="574.9" xlink:href="#fg"/>
    <linearGradient id="fg-9" x1="0" y1="666.24" x2="604.48" y2="666.24" xlink:href="#fg"/>
    <linearGradient id="fg-10" x1="0" y1="666.24" x2="604.48" y2="666.24" xlink:href="#fg"/>
    <linearGradient id="fg-11" x1="0" y1="666.24" x2="604.48" y2="666.24" xlink:href="#fg"/>
    <linearGradient id="fg-12" x1="0" y1="666.24" x2="604.48" y2="666.24" xlink:href="#fg"/>
    <linearGradient id="fg-13" x1="0" y1="666.24" x2="604.48" y2="666.24" xlink:href="#fg"/>
    <linearGradient id="fg-14" x1="0" y1="666.24" x2="604.48" y2="666.24" xlink:href="#fg"/>
    <linearGradient id="fg-15" x1="0" y1="666.24" x2="604.48" y2="666.24" xlink:href="#fg"/>
    <linearGradient id="fg-16" x1="0" y1="666.24" x2="604.48" y2="666.24" xlink:href="#fg"/>
    <linearGradient id="fg-17" x1="0" y1="666.24" x2="604.48" y2="666.24" xlink:href="#fg"/>
    <linearGradient id="fg-18" x1="0" y1="666.24" x2="604.48" y2="666.24" xlink:href="#fg"/>
    <linearGradient id="fg-19" x1="0" y1="666.24" x2="604.48" y2="666.24" xlink:href="#fg"/>
    <linearGradient id="fg-20" x1="0" y1="666.24" x2="604.48" y2="666.24" xlink:href="#fg"/>
    <linearGradient id="fg-21" x1="0" y1="666.24" x2="604.48" y2="666.24" xlink:href="#fg"/>
    <linearGradient id="fg-22" x1="0" y1="666.24" x2="604.48" y2="666.24" xlink:href="#fg"/>
    <linearGradient id="fg-23" x1="0" y1="666.24" x2="604.48" y2="666.24" xlink:href="#fg"/>
    <linearGradient id="fg-24" x1="0" y1="666.24" x2="604.48" y2="666.24" xlink:href="#fg"/>
    <linearGradient id="fg-25" x1="0" y1="666.24" x2="604.48" y2="666.24" xlink:href="#fg"/>
  </defs>
  <g class="cls-13">
    <g id="Layer_2" data-name="Layer 2">
      <g id="Layer_1-2" data-name="Layer 1">
        <g>
          <g>
            <path class="cls-20" d="M226.57,349.41c-16.04-1.11-24.46-13.46-26.81-23.97-2.83-12.68,1.23-28.91,16.68-36.58.22-.11.43-.23.67-.36,1.18-.65,3.88-2.13,5.32-2.23.78,4.67-.93,6.25-3.5,8.61-1.77,1.63-3.77,3.48-5.15,6.54-2.21,4.93-4.27,14.99-.36,21.03,1.86,2.88,4.83,4.4,8.57,4.4.57,0,1.17-.04,1.79-.11,6.83-.79,7.69-11.1,7.98-14.49.64-10.57.9-21.55,1.14-32.17.07-3.12.14-6.23.22-9.29l.05-1.96s-5.53-.26-7.34-.35c-8.76-.43-17.81-.88-26.71-.88-4.42,0-8.41.11-12.18.33l-1.53.09-.31,1.5c-.89,4.34-.85,8.89-.82,13.29.03,3.03.05,6.16-.24,9.1l-.02.17v.17c1.92,24.8-5.72,38.69-12.46,45.97-6.62,7.15-15.3,11.08-24.44,11.08h0c-15.38,0-27.48-10.74-30.84-27.37-2.24-21.77,10.38-40.33,34.66-50.95l1.13-.49.07-1.23c.16-2.92.41-5.92.68-9.1,1.79-21.42,3.99-47.93-24.51-52.08l24.87-40.72c3.15-4.87,7.67-7.36,13.4-7.36,3.92,0,8.42,1.19,12.99,3.45,1.42.7,2.87,1.61,4.4,2.57,3.64,2.29,7.76,4.88,12.38,4.88,2.29,0,4.56-.64,6.72-1.91,1.55-.91,2.52-2.16,3.37-3.26.33-.42.6-.76.85-1.04,1.01,6.28-.82,13.16-5.11,18.85-4.68,6.2-11.31,9.76-18.19,9.76-.76,0-1.52-.04-2.28-.13-3.38-.39-7.29-2.36-11.08-4.27-4.44-2.24-8.64-4.36-12.5-4.36-.18,0-.36,0-.54.01-3.02.16-6.77,2.22-8.91,4.9-1.56,1.94-2.2,4.04-1.86,6.07l.25,1.51,1.53.15c12.2,1.19,23.69,7.59,30.73,17.12,6.08,8.23,8.33,18.17,6.34,28.01l-.47,2.34,48.42,1.17.25-1.77c.73-5.23.76-10.5.59-16.81,0-.41-.08-.87-.17-1.36,3.99,2.53,12.13,7.68,13.73,8.7,2.27,2.76,5.92,5.39,9.45,7.93,2.5,1.8,4.86,3.5,6.38,5,.97,1.34.64,3.52.33,5.62-.13.89-.27,1.81-.31,2.68v.28s.05.27.05.27c1.55,6.61-5.35,17.51-10.9,26.26-2.54,4.01-4.93,7.79-6.49,11.01-8.91,17.52-15.81,36.78-19.99,55.78ZM149.01,283.53c-6.65,3.15-13.19,9.5-16.67,16.16-2.44,4.68-5.1,14.63-1.87,21.4,1.51,3.16,4.15,5.2,7.63,5.9.78.16,1.53.24,2.25.24,5.47,0,9.07-4.48,9.87-12.28l1.82-32.85-3.04,1.44Z"/>
            <g>
              <path class="cls-20" d="M473.12,348.36c-9.26,0-20.53-5.39-33.49-16.01-.46-.4-1.74-1.72-3.1-3.11-6.71-6.9-7.69-7.6-8.98-7.6h-.73l-.56.47c-11.1,9.31-24.91,20.9-40.69,23.72-1,.1-1.92.2-2.78.28-2.55.27-4.56.48-5.91.48-.74,0-1.12-.06-1.29-.11-.1-.94.73-3.85,1.53-6.67.25-.89.53-1.85.82-2.91l.05-.18.02-.19c.74-8.5.47-18.14.21-27.46-.15-5.59-.3-10.87-.25-15.91.05-4.59.3-9.93.56-15.58.65-14.02,1.38-29.9-.61-40.86-1.54-8.46-7.49-12.85-17.68-13.07.56-9.56,4.74-19.31,11.88-27.68l3.78-4.43-5.7,1.17c-5.88,1.2-9.05,5.88-11.85,10-1.07,1.57-2.08,3.06-3.16,4.26-13.5,10.94-25.18,24.29-36.46,37.25-1.25-1.38-3.16-3.82-4.22-5.17-.91-1.16-1.58-2.02-1.99-2.48-1.04-1.38-2.64-2.71-4.34-4.12-1.99-1.65-4.64-3.86-5.07-5.43,11.25-13.48,48.38-53.99,87.88-53.99,9.59,0,18.67,2.49,26.97,7.41,11.37,9.38,21.53,14.33,29.37,14.33h0c9.07,0,13.2-6.49,13.2-12.52,0-6.94-5.16-14.32-14.73-14.32-1.77,0-3.64.26-5.56.77l-.16.04-.15.07c-1.66.74-2.81,2.05-3.73,3.1-.2.22-.45.51-.67.74-.13-.19-.3-.46-.5-.85-2.75-5.25-2.64-10.83.29-15.71,3.62-6.03,11.05-10.12,18.52-10.22,23.8,3.32,31.31,18.77,30.4,32.14-1.23,18.07-16.76,36.76-40.62,36.76-12.17,0-24.93-4.84-37.92-14.38l-.16-.12-.18-.08c-5.21-2.45-10.2-3.69-14.84-3.69-6.38,0-14.95,2.41-19.62,13.87l-1.16,2.85,3.07-.09c.66-.02,1.31-.03,1.95-.03,10.82,0,18.81,2.81,24.44,8.6,11.85,12.19,11.17,36.35,10.57,57.68-.28,10.08-.55,19.61.37,27.77l.33,2.94,2.6-1.4c4.72-2.54,8.19-6.35,11.54-10.02,1.57-1.72,3.08-3.37,4.68-4.88,1.31,1.22,3.55,3.71,4.89,5.19,1.34,1.48,2.4,2.66,3.02,3.23l.11.09c1.12.89,2.31,1.93,3.57,3.04,3.16,2.77,6.43,5.63,9.78,7.18l1.76.81.87-1.73c1.13-2.25.75-4.25.45-5.85-.12-.64-.24-1.25-.25-1.81-.09-3.65-.04-7.38,0-10.99.06-4.7.12-9.55-.11-14.35l-.06-1.12-.99-.54c-9.2-4.97-14.67-15.35-13.93-26.44.69-10.38,6.71-18.7,16.1-22.27,2.85-.98,7.59-1.48,14.01-1.48,5.62,0,11.31.38,15.46.66,1.64.11,2.75.22,3.5.33-.64.75-1.43,1.73-2.1,2.92l-.16.29-.06.33c-3.46,19.2-2.05,40.58-.68,61.26.93,14.11,1.9,28.7,1.23,42.07v.11s0,.1,0,.1c.33,5.93-4.76,9.88-9.41,13.33-1.04.15-2.12.23-3.22.23h0Z"/>
              <path class="cls-20" d="M325.72,192.64c.52-17.97,2.86-33.77,6.97-46.98,13.69-26.77,2.61-42.51-19.72-59.19l-.53-.4h-3.49l-.54.42c-24.03,18.63-33.34,30.06-21.4,61.03.12,1.1.4,2.5.72,4.1.47,2.31,1.46,7.26,1.07,9.45-3.55-.88-7.55-2.89-11.43-4.83-2.53-1.27-4.92-2.46-7.21-3.37l-.12-.04c-2.15-.7-4.16-1.03-6.1-1.36-1.32-.22-2.58-.43-3.85-.74-2.05-11.85-7.39-39.1-26.63-39.1-.67,0-1.35.03-2.03.1-4.95.49-9.83,3.67-11.86,7.74-1.55,3.09-1.39,6.47.45,9.51,1.44,2.38,4.66,3.99,8.01,3.99,1.85,0,3.51-.49,4.79-1.42.74-.54,1.26-1.32,1.72-2,.11-.17.25-.38.38-.56,2.27,2.7.39,8.41-2.01,10.89-2.6,2.69-6.38,4.17-10.67,4.17h0c-7.88,0-17-5.2-17.98-13.61-.81-6.93.93-12.88,5.19-17.66,5.88-6.61,16.33-10.55,27.95-10.55,7.79,0,15.13,1.81,20.68,5.09l2.23,1.32.71-2.5c4.27-15.03,15.85-22.2,28.12-29.78,7.84-4.85,15.93-9.85,22.27-17.11,5.9,7.56,13.82,12.91,21.5,18.09,11.9,8.04,23.15,15.63,26.54,30.67l.49,2.19,2.12-.74c7.77-2.71,15.08-4.08,21.75-4.08,12.49,0,20.05,4.74,24.19,8.71,5.01,4.81,7.89,11.19,7.89,17.52,0,7.21-4.22,15.64-16.12,15.64-2.82,0-5.92-.49-9.23-1.45-2.87-1.42-5.21-4.34-6-7.47-.38-1.52-.54-3.66.56-5.78.27.51.59,1.03,1,1.48,1.72,1.84,4.06,2.86,6.59,2.86,4.75,0,8.63-3.5,9.04-8.13.32-3.69-.73-6.98-3.04-9.5-2.67-2.91-6.83-4.58-11.42-4.58-1.97,0-3.9.31-5.74.92-17.32,5.72-21.29,30.19-24.19,48.06-.5,3.08-.97,6.01-1.47,8.56-2.79,1.84-5.71,3.57-8.55,5.25-3.33,1.97-6.76,4.01-10.05,6.25-1.7,1.02-3.46,2.56-5.31,4.2-2.07,1.82-4.33,3.81-6.27,4.76Z"/>
              <path class="cls-20" d="M299.82,448.66c-23.47,0-45.95-21.59-52.54-28.52-.38-.62-1.02-1.47-2.04-2.78-1.37-1.77-4.87-6.3-5.17-8.06l27.31-12.17c5.02,13.18,15.51,24.47,30.46,32.76l.8.44.86-.32c35.44-13.02,43.6-55.78,33.42-91.64,1.11-1.79,2.23-3.58,3.35-5.36,5.11-8.14,10.38-16.53,14.42-25.52,12.38,21.11,18.64,48.49,16.82,74.06v.2s.01.2.01.2c.51,3.82,6.31,6.45,12.5,8.72,5.18,2,11.07,3.1,16.55,3.1,11.16,0,19.22-4.45,22.7-12.53l.08-.19.04-.2c.77-3.72-.04-7.49-2.15-10.08-1.75-2.15-4.27-3.34-7.08-3.34-1.09,0-2.22.18-3.36.53-3.26,1-4.34,4.09-4.91,6.35-2.08-2.19-3.14-5.1-2.95-8.27.27-4.58,2.99-8.75,7.11-10.93,2.94-.77,5.73-1.16,8.31-1.16,7,0,12.32,2.8,15.38,8.1,3.91,6.77,3.28,16.6-1.59,25.04-7.24,12.54-21.79,19.73-39.93,19.73h0c-7.3,0-15.22-1.14-23.56-3.38l-1.62-.44-.71,1.52c-8.85,18.93-28.76,35.42-50.71,42.02l-.13.04c-3.64,1.37-7.57,2.06-11.67,2.06Z"/>
              <path class="cls-20" d="M313.51,292.15c-22.55-34.88-56.75-66.53-89.97-83.14-.94-.58-2.2-1-3.52-1.44-.99-.33-2.74-.91-3.37-1.39.04-.05.08-.12.15-.2,5.12-6.05,9.37-12.97,13.47-19.67,8.63-14.06,16.08-26.21,28.66-26.21,6.17,0,13.26,2.86,21.66,8.75l.17.12.19.08c3.44,1.49,6.35,2.48,9.34,2.48s5.5-.97,7.87-2.96l.24-.2.17-.26c1.29-2.03,2.16-2.85,2.61-3.17.56,1.63.38,7.13-2.57,13.47-2.5,5.37-8.46,14.38-20.32,14.38-5.73,0-12.17-2.13-19.15-6.33l-.12-.07-.13-.05c-2.89-1.23-5.59-1.85-8.01-1.85-4.53,0-7.91,2.3-9.52,6.46l-.17.44.04.47c.2,2.17,2.9,3.77,8.59,6.66.95.48,1.85.94,2.27,1.2,23.73,15.08,53.01,35.71,69.06,61.6-.15,10.19-2.95,21.44-7.62,30.84Z"/>
              <path class="cls-20" d="M214.02,404.68c-4.38,0-8.73-.44-12.94-1.3-17.15-3.53-33.98-16.31-33.02-33.93,1.63-12.6,8.69-20.11,18.9-20.11,7.07,0,13.71,3.86,15.79,9.17,1.58,4.04.33,8.55-3.51,12.9-.06-.88-.14-1.77-.45-2.52-1.32-3.16-4.46-5.12-8.2-5.12-4.62,0-8.37,3.06-9.12,7.44-1.09,6.41.84,10.68,6.68,14.75,4.78,3.33,10.47,5.02,16.91,5.02h0c12.75,0,25.97-6.47,34.81-11.33,12.64-6.96,26.02-16.83,39.79-29.36,1.29.94,3.41,3.8,4.63,5.45,1.59,2.14,3.1,4.17,4.52,5.3.57.58,1.31,1.16,2.08,1.77,1.75,1.38,3.42,2.79,3.16,3.54-19.54,16.52-49.01,38.32-80.05,38.32h0Z"/>
              <path class="cls-20" d="M232.92,373.55c1.61-37.94,18.16-79.72,44.72-112.75,5.25,4.17,12.6,12.76,16.11,18.31.06.13.13.25.19.37.04.07.07.13.11.2-14.08,23.97-23.52,47.63-28.84,72.29-8.33,6.57-21.43,16.81-32.28,21.58Z"/>
              <path class="cls-20" d="M320.76,338.11c-9.5-8.77-13.28-13.48-14.67-16,8.69-11.77,14.42-22.11,17.99-32.47,5.32-15.42,6.37-30.87,6.67-45.3,3.83-5.97,14.09-17.04,20.43-22.59l-.48,10.13,2.23-.14c.29-.02.58-.04.86-.04.5,0,.7.06.75.08,0,.01.01.05.03.12.87,21.3-.78,73.48-33.81,106.21Z"/>
              <path class="cls-20" d="M326.88,382.83c-1.21-.63-3.48-2.11-7.7-5.46-.3-.24-.55-.44-.73-.57-9.83-7.62-20.28-17.44-28.66-26.93-3.95-4.47-9.92-11.59-10.86-13.3-.49-4.94,3.72-15.02,6.25-21.09.57-1.37,1.08-2.6,1.49-3.64.24-.48.43-.83.58-1.1,8.36,12.35,16.89,22.87,26.05,32.14,1.13,1.14,2.62,2.44,4.21,3.81,3.67,3.18,8.7,7.53,9.53,10.72,1.62,7.46,1.57,16.24-.17,25.42Z"/>
              <path class="cls-20" d="M302.24,504.63c-67.17,0-130.32-26.14-177.82-73.61-47.5-47.47-73.66-110.58-73.66-177.7s26.16-130.24,73.66-177.71C171.92,28.14,235.07,2,302.24,2s130.32,26.14,177.82,73.61c47.5,47.47,73.65,110.58,73.65,177.71s-26.16,130.24-73.65,177.7c-47.5,47.47-110.65,73.61-177.82,73.61ZM302.23,23.47c-126.84,0-230.04,103.13-230.04,229.89s103.2,229.9,230.04,229.9,230.03-103.13,230.03-229.9S429.07,23.47,302.23,23.47Z"/>
            </g>
          </g>
          <g class="cls-16">
            <path class="cls-6" d="M147.14,340.3c-4.78,0-10.07-1.61-14.35-5.53c1.12.44,2.3.79,3.53,1.04c1.36.28,2.72.42,4.04.42c8.09,0,17.28-5.35,18.82-20.36l.03-.26,2.66-48.13-.62.29c.15-2.19.34-4.47.54-6.85c1.39-16.74,3.51-42.12-13.65-54.73c9.56,1.05,18.49,6.06,23.97,13.47c3.22,4.35,6.66,11.51,4.76,20.87l-2.61,12.86,67.18,1.63,1.35-9.72c.13-.93.24-1.85.33-2.77c2.76,2.73,6.09,5.12,9.11,7.3c1.01.72,2.08,1.5,3.03,2.21c-.15,1.01-.31,2.13-.37,3.37l-.07,1.53.33,1.42c.32,3.6-6.46,14.31-9.72,19.46c-1.26,1.99-2.48,3.92-3.61,5.8c.03-1.11.05-2.22.08-3.32c.07-3.11.14-6.21.22-9.26l.28-10.77-10.76-.51c-1.77-.08-3.56-.17-5.36-.26c-8.87-.44-18.03-.89-27.15-.89c-4.6,0-8.76.11-12.71.35l-8.43.5-1.7,8.27c-1.08,5.28-1.04,10.54-1,15.18c.02,2.92.05,5.68-.19,8.14l-.09.96.07.96c1.29,16.82-2.3,30.73-10.11,39.16c-4.9,5.29-11.23,8.2-17.83,8.2h0Z"/>
            <path class="cls-6" d="M302.24,495.63c-64.77,0-125.66-25.21-171.46-70.97c-45.8-45.77-71.02-106.61-71.02-171.34s25.22-125.58,71.02-171.35C176.58,36.21,237.47,11,302.24,11s125.66,25.21,171.46,70.97c45.79,45.77,71.01,106.62,71.01,171.35s-25.22,125.57-71.01,171.34c-45.8,45.77-106.69,70.97-171.46,70.97ZM302.23,14.47c-131.81,0-239.04,107.17-239.04,238.89s107.23,238.9,239.04,238.9,239.03-107.17,239.03-238.9S434.04,14.47,302.23,14.47Z"/>
          </g>
        </g>
        <g>
          <g>
            <path class="cls-9" d="M71.59,609.54h-28.6v-1.92h7.11l-6.09-20.66h-19.88c-2.88,10.39-4.32,16.02-4.32,16.89,0,2.52,1.83,3.77,5.5,3.77h3.98v1.92H6.79v-1.92h2.28c4.23,0,6.94-2.14,8.12-6.43l20.22-73.37h3.3l23.94,79.81h6.94v1.92ZM43.5,585.1l-9.73-33.35-9.14,33.35h18.87Z"/>
            <path class="cls-24" d="M154.61,530.85h-1.78c-3.78,0-5.67,1.09-5.67,3.28v75.42h-11.51l-34.09-70.22h-.34v61.12c0,4.79,2.2,7.18,6.6,7.18h3.81v1.92h-20.98v-1.92c2.82,0,4.76-.38,5.84-1.14,1.07-.76,1.61-2.2,1.61-4.3v-71.33h-7.44v-1.92h21.32l31.73,65.76h.34v-58.4c0-3.63-2.43-5.44-7.28-5.44h-3.13v-1.92h20.98v1.92Z"/>
            <path class="cls-3" d="M272.27,530.85h-7.45v66.13c0,8.62-1.83,14.94-5.5,18.96-3.67,4.02-9.81,6.03-18.44,6.03-5.08,0-9.15-1.02-12.23-3.06-3.07-2.04-4.61-4.45-4.61-7.21,0-1.65.72-2.99,2.16-4.02,1.44-1.03,3.31-1.55,5.63-1.55,1.92,0,3.58.52,4.99,1.55,1.41,1.03,2.12,2.25,2.12,3.65,0,2.02-1.02,3.67-3.05,4.95-.73.37-1.1.66-1.1.87,0,.58.69,1.17,2.07,1.76,1.38.6,2.89.9,4.53.9,3.05,0,5.34-.63,6.9-1.89,1.55-1.26,2.33-3.12,2.33-5.6l-.17-3.03v-78.45h-7.45v-1.92h29.27v1.92Z"/>
            <path class="cls-5" d="M346.92,609.54h-51.61v-1.92h7.45v-76.78h-7.45v-1.92h51.1v17.75h-2.62c-.9-5.4-2.64-9.39-5.2-11.97-2.57-2.58-6.19-3.87-10.87-3.87h-10.58v34.71h7.28c3.27,0,5.96-.78,8.08-2.35,2.12-1.57,3.17-3.53,3.17-5.88v-3.16h2.62v25.86h-2.45v-.74c0-3.55-1-6.38-3-8.51s-4.64-3.19-7.91-3.19h-7.78v40.03h8.63c5.41,0,9.5-1.55,12.27-4.64,2.76-3.09,4.88-7.92,6.35-14.48h2.54v21.03Z"/>
            <path class="cls-17" d="M426.9,530.85h-2.45c-1.64,0-2.95.4-3.93,1.21-.99.8-1.48,1.8-1.48,3v59.39c0,5.32-1.75,9.31-5.25,11.97-3.5,2.66-8.71,3.99-15.65,3.99s-11.82-1.62-15.48-4.86c-3.67-3.24-5.5-7.87-5.5-13.89v-60.81h-7.44v-1.92h29.27v1.92h-7.44v68.79c0,2.52.99,4.5,2.96,5.94,1.97,1.44,4.68,2.17,8.12,2.17,4.23,0,7.54-1.18,9.94-3.53,2.4-2.35,3.59-5.69,3.59-10.02v-59.14c0-1.24-.49-2.25-1.48-3.03-.99-.78-2.3-1.17-3.93-1.17h-2.45v-1.92h18.61v1.92Z"/>
            <path class="cls-19" d="M510.86,601.93c-1.18,5.49-4.82,8.23-10.91,8.23-4.34,0-7.71-1.29-10.11-3.87-2.4-2.58-3.6-6.36-3.6-11.35v-20.85c0-2.35-.68-4.12-2.03-5.32s-3.38-1.79-6.09-1.79h-7.11v40.65h7.45v1.92h-29.27v-1.92h7.45v-76.78h-7.45v-1.92h31.89c6.71,0,11.86,1.62,15.44,4.86,3.58,3.24,5.37,7.79,5.37,13.64s-1.31,10.03-3.93,12.78c-2.62,2.74-6.75,4.61-12.39,5.6v.31h1.35c4.06,0,7.36,1.23,9.9,3.68,2.54,2.45,3.81,5.74,3.81,9.87v21.65c0,2.76,1.1,4.15,3.3,4.15,2.31,0,3.75-1.3,4.31-3.9l2.62.37ZM486.41,557.08v-15.96c0-3.42-.73-5.99-2.2-7.7-1.47-1.71-3.67-2.57-6.6-2.57h-6.6v34.21h6.94c2.48,0,4.51-.74,6.09-2.23s2.37-3.4,2.37-5.75Z"/>
            <path class="cls-21" d="M594.39,530.85h-1.78c-3.78,0-5.67,1.09-5.67,3.28v75.42h-11.51l-34.09-70.22h-.34v61.12c0,4.79,2.2,7.18,6.6,7.18h3.81v1.92h-20.98v-1.92c2.82,0,4.76-.38,5.84-1.14,1.07-.76,1.61-2.2,1.61-4.3v-71.33h-7.44v-1.92h21.32l31.73,65.76h.34v-58.4c0-3.63-2.43-5.44-7.28-5.44h-3.13v-1.92h20.98v1.92Z"/>
          </g>
          <g class="cls-16">
            <path class="cls-6" d="M71.59,609.54h-28.6v-1.92h7.11l-6.09-20.66h-19.88c-2.88,10.39-4.32,16.02-4.32,16.89,0,2.52,1.83,3.77,5.5,3.77h3.98v1.92H6.79v-1.92h2.28c4.23,0,6.94-2.14,8.12-6.43l20.22-73.37h3.3l23.94,79.81h6.94v1.92ZM43.5,585.1l-9.73-33.35-9.14,33.35h18.87Z"/>
            <path class="cls-6" d="M346.92,609.54h-51.61v-1.92h7.45v-76.78h-7.45v-1.92h51.1v17.75h-2.62c-.9-5.4-2.64-9.39-5.2-11.97-2.57-2.58-6.19-3.87-10.87-3.87h-10.58v34.71h7.28c3.27,0,5.96-.78,8.08-2.35,2.12-1.57,3.17-3.53,3.17-5.88v-3.16h2.62v25.86h-2.45v-.74c0-3.55-1-6.38-3-8.51s-4.64-3.19-7.91-3.19h-7.78v40.03h8.63c5.41,0,9.5-1.55,12.27-4.64,2.76-3.09,4.88-7.92,6.35-14.48h2.54v21.03Z"/>
          </g>
        </g>
        <g>
          <g>
            <path class="cls-28" d="M0,647.09h11.64c12.08,0,17.49,6.17,17.49,18.14,0,13-4.91,20.15-18.33,20.15H0v-38.29ZM5.77,681.78h4.8c9.57,0,12.61-5.56,12.61-16.41,0-10.17-3.57-14.65-12.53-14.65h-4.88v31.06Z"/>
            <path class="cls-25" d="M50.22,647.09v38.29h-5.74v-38.29h5.74Z"/>
            <path class="cls-18" d="M95.35,685.37h-4.52c-.18-1.07-.34-2.23-.36-4.14-1.72,2.66-4.33,4.7-10.48,4.7-11.34,0-14.31-8.55-14.31-19.67,0-13.18,5.53-19.74,16.17-19.74,12.55,0,13.37,8.14,13.52,10.44h-5.74c-.15-1.36-.57-6.76-7.94-6.76s-10,6.37-10,15.99,1.96,16.08,9.33,16.08,8.67-4.32,8.67-12.34v-1.87h-9.09v-3.69h14.76v20.99Z"/>
            <path class="cls-10" d="M117.43,647.09v38.29h-5.74v-38.29h5.74Z"/>
            <path class="cls-4" d="M141.41,650.84h-11.67v-3.75h29.08v3.75h-11.67v34.53h-5.74v-34.53Z"/>
            <path class="cls-14" d="M172.3,673.22l-3.81,12.15h-5.74s12.64-38.29,12.64-38.29h7.46l13.02,38.29h-6.11l-3.86-12.15h-13.61ZM184.73,669.49c-3.04-9.41-5-15.39-5.7-18.44h-.18c-.72,3.33-2.86,10.22-5.42,18.44h11.31Z"/>
            <path class="cls-27" d="M208.65,647.09h5.74v34.59h18.7l-.83,3.69h-23.61v-38.29Z"/>
            <path class="cls-22" d="M272.59,647.09v38.29h-5.74v-38.29h5.74Z"/>
            <path class="cls-23" d="M290.05,685.37v-38.29h7.08c14.47,26.5,16.5,30.11,17.17,31.77h.08c-.36-5.14-.46-10.91-.46-17.13v-14.64h5.38v38.29h-6.76c-15.03-27.84-16.88-31.36-17.48-32.87h-.08c.39,4.79.44,11.06.44,17.95v14.92h-5.36Z"/>
            <path class="cls-7" d="M345.34,685.37l-12.95-38.29h6.17l5.79,18.17c1.71,5.34,3.72,12.03,4.39,15.69h.15c.67-3.31,3.19-10.29,4.97-15.66l5.96-18.19h5.96l-13.52,38.29h-6.91Z"/>
            <path class="cls-11" d="M384.12,647.09v38.29h-5.74v-38.29h5.74Z"/>
            <path class="cls-2" d="M408.11,650.84h-11.67v-3.75h29.08v3.75h-11.67v34.53h-5.74v-34.53Z"/>
            <path class="cls-26" d="M438.99,673.22l-3.81,12.15h-5.74s12.64-38.29,12.64-38.29h7.46l13.02,38.29h-6.11l-3.86-12.15h-13.61ZM451.42,669.49c-3.04-9.41-5-15.39-5.7-18.44h-.18c-.72,3.33-2.85,10.22-5.42,18.44h11.31Z"/>
            <path class="cls-12" d="M477.86,650.84h-11.67v-3.75h29.08v3.75h-11.67v34.53h-5.74v-34.53Z"/>
            <path class="cls-15" d="M513.61,647.09v38.29h-5.74v-38.29h5.74Z"/>
            <path class="cls-8" d="M559.9,665.89c0,13.06-4.25,20.05-15.58,20.05s-15.24-6.75-15.24-19.98,5.23-19.42,15.5-19.42c10.84,0,15.32,6.38,15.32,19.35ZM535,665.87c0,10.92,3.01,16.42,9.5,16.42s9.48-5.34,9.48-16.34-3.01-15.73-9.53-15.73-9.45,5.23-9.45,15.66Z"/>
            <path class="cls-1" d="M575.24,685.37v-38.29h7.08c14.47,26.5,16.5,30.11,17.17,31.77h.08c-.36-5.14-.46-10.91-.46-17.13v-14.64h5.38v38.29h-6.76c-15.03-27.84-16.88-31.36-17.48-32.87h-.08c.39,4.79.44,11.06.44,17.95v14.92h-5.36Z"/>
          </g>
          <g class="cls-16">
            <path class="cls-6" d="M50.22,647.09v38.29h-5.74v-38.29h5.74Z"/>
            <path class="cls-6" d="M513.61,647.09v38.29h-5.74v-38.29h5.74Z"/>
          </g>
        </g>
      </g>
    </g>
  </g>
</svg>
