<?xml version="1.0" encoding="UTF-8"?>
<svg xmlns="http://www.w3.org/2000/svg" xmlns:xlink="http://www.w3.org/1999/xlink" viewBox="0 0 319.07 172">
  <defs>
    <style>
      .cls-1 {
        fill: none;
        stroke: url(#New_Gradient_Swatch-20);
        stroke-miterlimit: 10;
        stroke-width: 2px;
      }

      .cls-2 {
        fill: url(#New_Gradient_Swatch-4);
      }

      .cls-3 {
        fill: url(#New_Gradient_Swatch-13);
      }

      .cls-4 {
        fill: url(#New_Gradient_Swatch-5);
      }

      .cls-5 {
        fill: #fff;
      }

      .cls-6 {
        fill: url(#New_Gradient_Swatch-18);
      }

      .cls-7 {
        fill: url(#New_Gradient_Swatch-2);
      }

      .cls-8 {
        fill: url(#New_Gradient_Swatch-14);
      }

      .cls-9 {
        fill: url(#New_Gradient_Swatch-19);
      }

      .cls-10 {
        isolation: isolate;
      }

      .cls-11 {
        fill: url(#New_Gradient_Swatch-12);
      }

      .cls-12 {
        mix-blend-mode: overlay;
        opacity: .32;
      }

      .cls-13 {
        fill: url(#New_Gradient_Swatch-6);
      }

      .cls-14 {
        fill: url(#New_Gradient_Swatch-11);
      }

      .cls-15 {
        fill: url(#New_Gradient_Swatch-7);
      }

      .cls-16 {
        fill: url(#New_Gradient_Swatch);
      }

      .cls-17 {
        fill: url(#New_Gradient_Swatch-8);
      }

      .cls-18 {
        fill: url(#New_Gradient_Swatch-16);
      }

      .cls-19 {
        fill: url(#New_Gradient_Swatch-17);
      }

      .cls-20 {
        fill: url(#New_Gradient_Swatch-3);
      }

      .cls-21 {
        fill: url(#New_Gradient_Swatch-10);
      }

      .cls-22 {
        fill: url(#New_Gradient_Swatch-15);
      }

      .cls-23 {
        fill: url(#New_Gradient_Swatch-9);
      }
    </style>
    <linearGradient id="New_Gradient_Swatch" data-name="New Gradient Swatch" x1="15.75" y1="79.32" x2="149.64" y2="79.32" gradientUnits="userSpaceOnUse">
      <stop offset="0" stop-color="#8B2040"/>
      <stop offset=".47" stop-color="#D4556E"/>
      <stop offset="1" stop-color="#6B1228"/>
    </linearGradient>
    <linearGradient id="New_Gradient_Swatch-2" data-name="New Gradient Swatch" y1="82.05" x2="149.64" y2="82.05" xlink:href="#New_Gradient_Swatch"/>
    <linearGradient id="New_Gradient_Swatch-3" data-name="New Gradient Swatch" x1="15.75" y1="35.56" x2="149.64" y2="35.56" xlink:href="#New_Gradient_Swatch"/>
    <linearGradient id="New_Gradient_Swatch-4" data-name="New Gradient Swatch" x1="15.75" y1="126.64" x2="149.64" y2="126.64" xlink:href="#New_Gradient_Swatch"/>
    <linearGradient id="New_Gradient_Swatch-5" data-name="New Gradient Swatch" x1="15.75" y1="71.7" x2="149.64" y2="71.7" xlink:href="#New_Gradient_Swatch"/>
    <linearGradient id="New_Gradient_Swatch-6" data-name="New Gradient Swatch" x1="15.75" y1="126.21" x2="149.64" y2="126.21" xlink:href="#New_Gradient_Swatch"/>
    <linearGradient id="New_Gradient_Swatch-7" data-name="New Gradient Swatch" x1="15.75" y1="104.6" x2="149.64" y2="104.6" xlink:href="#New_Gradient_Swatch"/>
    <linearGradient id="New_Gradient_Swatch-8" data-name="New Gradient Swatch" x1="15.75" y1="91.2" x2="149.64" y2="91.2" xlink:href="#New_Gradient_Swatch"/>
    <linearGradient id="New_Gradient_Swatch-9" data-name="New Gradient Swatch" y1="115.31" x2="149.64" y2="115.31" xlink:href="#New_Gradient_Swatch"/>
    <linearGradient id="New_Gradient_Swatch-10" data-name="New Gradient Swatch" x1="15.75" y1="35.44" x2="149.64" y2="35.44" xlink:href="#New_Gradient_Swatch"/>
    <linearGradient id="New_Gradient_Swatch-11" data-name="New Gradient Swatch" x1="15.75" y1="35.44" x2="149.64" y2="35.44" xlink:href="#New_Gradient_Swatch"/>
    <linearGradient id="New_Gradient_Swatch-12" data-name="New Gradient Swatch" x1="15.75" y1="133.25" x2="149.64" y2="133.25" xlink:href="#New_Gradient_Swatch"/>
    <linearGradient id="New_Gradient_Swatch-13" data-name="New Gradient Swatch" x1="15.75" y1="133.25" x2="149.64" y2="133.25" xlink:href="#New_Gradient_Swatch"/>
    <linearGradient id="New_Gradient_Swatch-14" data-name="New Gradient Swatch" x1="167.39" y1="86.16" x2="307.73" y2="86.16" xlink:href="#New_Gradient_Swatch"/>
    <linearGradient id="New_Gradient_Swatch-15" data-name="New Gradient Swatch" x1="167.39" y1="86.16" x2="307.73" y2="86.16" xlink:href="#New_Gradient_Swatch"/>
    <linearGradient id="New_Gradient_Swatch-16" data-name="New Gradient Swatch" x1="167.39" y1="86.16" x2="307.73" y2="86.16" xlink:href="#New_Gradient_Swatch"/>
    <linearGradient id="New_Gradient_Swatch-17" data-name="New Gradient Swatch" x1="167.39" y1="86.16" x2="307.73" y2="86.16" xlink:href="#New_Gradient_Swatch"/>
    <linearGradient id="New_Gradient_Swatch-18" data-name="New Gradient Swatch" x1="167.39" y1="86.16" x2="307.73" y2="86.16" xlink:href="#New_Gradient_Swatch"/>
    <linearGradient id="New_Gradient_Swatch-19" data-name="New Gradient Swatch" x1="167.39" y1="86.16" x2="307.73" y2="86.16" xlink:href="#New_Gradient_Swatch"/>
    <linearGradient id="New_Gradient_Swatch-20" data-name="New Gradient Swatch" x1="0" y1="86" x2="319.07" y2="86" xlink:href="#New_Gradient_Swatch"/>
  </defs>
  <g class="cls-10">
    <g id="Layer_2" data-name="Layer 2">
      <g id="Layer_1-2" data-name="Layer 1">
        <g>
          <g>
            <g>
              <path class="cls-16" d="M144.58,115.79c-3.33,0-7.38-1.94-12.04-5.76-.16-.14-.62-.62-1.11-1.12-2.46-2.53-2.8-2.77-3.3-2.77h-.29l-.22.19c-4,3.36-8.98,7.53-14.65,8.55-.36.04-.69.07-1,.1-.92.1-1.64.17-2.13.17-.2,0-.32-.01-.39-.03,0-.38.28-1.36.55-2.32.09-.32.19-.67.3-1.05l.02-.07v-.07c.27-3.07.18-6.56.08-9.92-.06-2.02-.11-3.92-.09-5.74.02-1.65.11-3.58.2-5.62.23-5.06.5-10.8-.22-14.77-.56-3.07-2.7-4.68-6.38-4.78.22-3.41,1.72-6.88,4.26-9.87l1.51-1.77-2.28.47c-2.15.44-3.31,2.14-4.32,3.64-.38.56-.74,1.1-1.13,1.52-4.85,3.94-9.06,8.73-13.11,13.39-.45-.5-1.1-1.33-1.46-1.8-.36-.46-.58-.74-.72-.9-.38-.5-.96-.99-1.58-1.5-.66-.55-1.61-1.34-1.79-1.88,4.09-4.89,17.45-19.43,31.64-19.43,3.45,0,6.71.9,9.69,2.66,4.12,3.39,7.8,5.19,10.65,5.19h0c3.33,0,4.84-2.38,4.84-4.6,0-2.54-1.89-5.25-5.39-5.25-.65,0-1.33.09-2.03.28l-.06.02-.06.03c-.62.28-1.04.75-1.37,1.14-.05.06-.11.13-.17.19-.04-.06-.08-.13-.12-.22-.98-1.87-.94-3.86.1-5.6,1.29-2.15,3.95-3.61,6.62-3.65,8.54,1.19,11.23,6.73,10.9,11.52-.44,6.49-6.02,13.2-14.59,13.2-4.38,0-8.97-1.74-13.64-5.18l-.06-.05-.07-.03c-1.89-.89-3.7-1.34-5.39-1.34-2.33,0-5.45.88-7.15,5.05l-.46,1.14,1.23-.04c.24,0,.47-.01.7-.01,3.88,0,6.75,1.01,8.77,3.08,4.25,4.38,4.01,13.08,3.79,20.77-.1,3.64-.2,7.08.13,10.04l.13,1.17,1.04-.56c1.71-.92,2.97-2.3,4.19-3.63.55-.6,1.08-1.18,1.63-1.71.48.45,1.25,1.31,1.71,1.82.48.54.87.96,1.09,1.17l.04.04c.4.32.83.7,1.29,1.09,1.09.96,2.33,2.04,3.55,2.61l.7.32.35-.69c.42-.84.28-1.57.17-2.16-.04-.23-.08-.44-.09-.64-.03-1.31-.02-2.66,0-3.96.02-1.7.04-3.45-.04-5.19l-.02-.45-.4-.21c-3.29-1.78-5.25-5.5-4.99-9.47.25-3.72,2.4-6.7,5.76-7.97,1.02-.35,2.72-.53,5.03-.53,2.03,0,4.08.14,5.58.24.5.03.86.07,1.12.1-.21.26-.46.58-.68.96l-.06.12-.02.13c-1.25,6.94-.74,14.66-.25,22.13.34,5.09.69,10.36.44,15.18v.04s0,.04,0,.04c.12,2.09-1.69,3.5-3.35,4.74-.37.05-.75.08-1.13.08h0Z"/>
              <path class="cls-7" d="M55.51,116.16c-5.71-.43-8.7-4.83-9.54-8.59-1.02-4.55.44-10.37,5.98-13.12.08-.04.16-.08.24-.13.37-.2,1.3-.71,1.82-.79.25,1.59-.32,2.12-1.25,2.97-.64.59-1.37,1.27-1.88,2.38-.81,1.79-1.55,5.46-.13,7.67.69,1.06,1.78,1.62,3.16,1.62.21,0,.43-.01.65-.04,2.53-.29,2.84-4.06,2.95-5.3.23-3.83.32-7.8.41-11.64.03-1.12.05-2.23.08-3.33l.02-.78s-2.07-.1-2.72-.13c-3.16-.16-6.43-.32-9.65-.32-1.6,0-3.04.04-4.4.12l-.61.04-.12.6c-.32,1.58-.31,3.22-.3,4.82,0,1.09.02,2.22-.09,3.28v.07s0,.07,0,.07c.69,8.93-2.06,13.92-4.49,16.54-2.38,2.56-5.49,3.98-8.77,3.98h0c-5.52,0-9.85-3.85-11.06-9.82-.8-7.82,3.74-14.5,12.47-18.31l.45-.2.03-.49c.06-1.05.15-2.14.24-3.28.64-7.74,1.44-17.31-8.8-18.87l8.92-14.6c1.12-1.73,2.73-2.62,4.77-2.62,1.4,0,3.01.43,4.66,1.24.51.25,1.03.58,1.58.92,1.32.83,2.82,1.77,4.51,1.77.84,0,1.67-.24,2.46-.7.57-.34.94-.81,1.24-1.2.07-.09.14-.17.19-.25.3,2.2-.36,4.6-1.85,6.58-1.67,2.22-4.05,3.49-6.51,3.49-.27,0-.54-.02-.81-.05-1.2-.14-2.61-.85-3.97-1.53-1.61-.81-3.14-1.58-4.55-1.58-.07,0-.13,0-.2,0-1.13.06-2.47.8-3.27,1.8-.58.72-.81,1.5-.69,2.25l.1.6.61.06c4.38.43,8.51,2.73,11.04,6.15,2.18,2.95,2.99,6.52,2.28,10.05l-.19.93,17.64.43.1-.71c.26-1.9.28-3.8.21-6.08,0-.1-.01-.21-.03-.33l4.8,3.04c.83,1,2.14,1.95,3.42,2.87.9.65,1.75,1.26,2.29,1.79.33.46.21,1.23.1,1.97-.05.32-.1.66-.11.97v.11s.02.11.02.11c.55,2.36-1.93,6.27-3.92,9.42-.92,1.45-1.78,2.82-2.35,3.98-3.21,6.31-5.7,13.24-7.21,20.09ZM27.54,92.39c-2.42,1.15-4.79,3.45-6.05,5.87-.89,1.7-1.86,5.32-.68,7.79.55,1.16,1.53,1.91,2.81,2.17.29.06.56.09.83.09,2.02,0,3.35-1.64,3.64-4.5l.66-11.99-1.21.58Z"/>
              <path class="cls-20" d="M91.45,59.52c.19-6.42,1.04-12.07,2.51-16.8,4.96-9.71.95-15.41-7.14-21.46l-.21-.16h-1.31l-.22.17c-8.7,6.75-12.08,10.89-7.76,22.11.04.4.15.9.26,1.48.15.74.5,2.49.4,3.3-1.25-.33-2.66-1.03-4.03-1.72-.92-.46-1.78-.89-2.61-1.22l-.05-.02c-.78-.25-1.51-.37-2.21-.49-.46-.08-.9-.15-1.33-.26-.75-4.32-2.7-14.13-9.68-14.13-.24,0-.49.01-.74.04-1.81.18-3.6,1.35-4.34,2.84-.57,1.14-.51,2.39.17,3.51.53.88,1.72,1.48,2.96,1.48.69,0,1.3-.18,1.77-.53.28-.2.47-.49.64-.74.02-.03.05-.08.08-.12.7.97.04,2.9-.78,3.75-.92.95-2.27,1.48-3.79,1.48h0c-2.81,0-6.07-1.85-6.42-4.85-.29-2.48.33-4.61,1.86-6.32,2.11-2.37,5.86-3.78,10.03-3.78,2.8,0,5.44.65,7.43,1.83l.89.53.28-1c1.53-5.4,5.7-7.98,10.12-10.71,2.81-1.74,5.71-3.53,8-6.12,2.13,2.7,4.97,4.62,7.72,6.48,4.28,2.89,8.33,5.63,9.55,11.02l.2.87.84-.29c2.8-.97,5.43-1.47,7.83-1.47,4.48,0,7.19,1.7,8.68,3.12,1.79,1.72,2.82,4.01,2.82,6.27,0,2.57-1.5,5.57-5.74,5.57-1.01,0-2.12-.17-3.3-.52-1.01-.51-1.84-1.54-2.12-2.64-.13-.5-.18-1.2.13-1.9.08.15.18.29.3.42.64.68,1.5,1.06,2.43,1.06,1.75,0,3.19-1.29,3.34-3.01.12-1.36-.27-2.56-1.12-3.49-.98-1.07-2.5-1.68-4.18-1.68-.72,0-1.42.11-2.1.33-6.3,2.08-7.73,10.94-8.78,17.41-.18,1.1-.35,2.14-.53,3.05-1,.66-2.04,1.28-3.06,1.88-1.2.71-2.44,1.45-3.63,2.26-.62.37-1.26.93-1.93,1.52-.67.59-1.46,1.28-2.13,1.65Z"/>
              <path class="cls-2" d="M82.02,152c-8.44,0-16.53-7.77-18.91-10.27-.14-.23-.37-.53-.74-1-.47-.61-1.67-2.16-1.84-2.82l9.73-4.34c1.83,4.74,5.62,8.81,11,11.79l.32.18.34-.13c12.83-4.71,15.79-20.17,12.12-33.14.4-.64.79-1.27,1.19-1.91,1.82-2.9,3.69-5.88,5.15-9.08,4.41,7.59,6.64,17.4,5.99,26.57v.08s0,.08,0,.08c.19,1.42,2.3,2.38,4.56,3.21,1.88.72,4.01,1.12,6,1.12,4.06,0,7-1.62,8.27-4.57l.03-.07.02-.08c.28-1.37-.01-2.75-.79-3.71-.65-.8-1.58-1.23-2.61-1.23-.4,0-.82.07-1.24.19-1.14.35-1.57,1.42-1.79,2.21-.68-.76-1.02-1.75-.95-2.83.1-1.62,1.06-3.1,2.52-3.88,1.05-.28,2.05-.41,2.97-.41,2.5,0,4.4,1,5.49,2.89,1.4,2.42,1.17,5.94-.57,8.97-2.6,4.5-7.83,7.09-14.35,7.09h0c-2.63,0-5.48-.41-8.49-1.22l-.65-.17-.28.61c-3.19,6.82-10.35,12.75-18.26,15.13l-.05.02c-1.31.49-2.72.74-4.19.74Z"/>
              <path class="cls-4" d="M86.95,95.42c-8.15-12.56-20.47-23.94-32.44-29.93-.35-.21-.8-.37-1.28-.52-.32-.11-.87-.29-1.13-.45,0,0,0,0,0,0,1.85-2.19,3.39-4.69,4.87-7.11,3.1-5.06,5.78-9.43,10.28-9.43,2.21,0,4.76,1.03,7.78,3.14l.07.05.07.03c1.25.54,2.31.9,3.4.9,1.08,0,2.02-.36,2.89-1.09l.09-.08.07-.1c.39-.61.67-.91.83-1.06.17.71.03,2.75-1.1,5-.91,1.81-3.03,4.84-7.12,4.84-2.05,0-4.37-.77-6.88-2.27l-.05-.03-.05-.02c-1.05-.45-2.04-.68-2.92-.68-1.67,0-2.92.85-3.51,2.38l-.07.17.02.19c.07.82,1.06,1.41,3.14,2.47.34.17.66.34.81.43,8.55,5.44,19.11,12.87,24.89,22.2-.06,3.62-1.04,7.61-2.69,10.96Z"/>
              <path class="cls-13" d="M51.04,136.12c-1.58,0-3.14-.16-4.66-.47-6.16-1.27-12.2-5.85-11.86-12.17.58-4.5,3.1-7.19,6.75-7.19,2.52,0,4.89,1.37,5.63,3.26.55,1.41.16,2.93-1.13,4.44-.02-.26-.06-.52-.16-.75-.49-1.17-1.65-1.89-3.03-1.89-1.71,0-3.09,1.13-3.37,2.75-.4,2.35.31,3.91,2.44,5.4,1.74,1.21,3.81,1.83,6.15,1.83,4.62,0,9.41-2.34,12.6-4.1,4.55-2.51,9.38-6.06,14.33-10.57.45.36,1.18,1.34,1.61,1.91.58.78,1.12,1.51,1.64,1.93.21.21.48.42.76.64.31.25,1.15.91,1.14,1.16,0,0,0,0,0,0-7.05,5.95-17.67,13.81-28.85,13.81h0Z"/>
              <path class="cls-15" d="M57.95,124.84c.61-13.63,6.55-28.61,16.07-40.48,1.88,1.51,4.48,4.56,5.74,6.54.02.05.08.16.09.17-5.07,8.64-8.47,17.17-10.39,26.06-2.98,2.35-7.63,5.98-11.5,7.71Z"/>
              <path class="cls-17" d="M89.58,112.06c-3.34-3.08-4.69-4.76-5.2-5.66,3.13-4.24,5.19-7.97,6.48-11.7,1.92-5.57,2.3-11.15,2.41-16.36,1.36-2.11,4.93-5.97,7.21-8l-.17,3.56.89-.06c.1,0,.21-.01.31-.01.11,0,.17,0,.21.01.31,7.68-.29,26.43-12.13,38.22Z"/>
              <path class="cls-23" d="M91.74,128.19c-.45-.25-1.25-.78-2.68-1.91l-.26-.21c-3.55-2.75-7.31-6.29-10.34-9.71-1.41-1.6-3.54-4.14-3.9-4.77-.16-1.77,1.34-5.38,2.25-7.56.21-.49.39-.94.54-1.31.06-.11.1-.21.15-.28,3,4.42,6.06,8.19,9.34,11.51.41.41.95.88,1.52,1.38,1.32,1.14,3.12,2.7,3.42,3.83.58,2.65.56,5.77-.04,9.04Z"/>
              <g>
                <path class="cls-21" d="M86.15,37.98c-.52-1.2-1.34-2.01-2.54-2.54,1.2-.52,2.01-1.34,2.54-2.54.52,1.2,1.34,2.01,2.54,2.54-1.2.52-2.01,1.34-2.54,2.54Z"/>
                <path class="cls-14" d="M86.15,37.98c-.52-1.2-1.34-2.01-2.54-2.54,1.2-.52,2.01-1.34,2.54-2.54.52,1.2,1.34,2.01,2.54,2.54-1.2.52-2.01,1.34-2.54,2.54Z"/>
              </g>
              <g>
                <path class="cls-11" d="M82.47,137.57c-.32,0-.73-.13-.89-.49-.1-.22-.28-1,.89-2.55,1.17,1.54.99,2.32.89,2.55-.16.36-.57.49-.89.49ZM79.05,134.22c-.35,0-.6-.13-.75-.4-.19-.33-.19-.81,0-1.14.15-.27.4-.4.75-.4s1.05.14,2.14.97c-1.09.83-1.79.97-2.14.97h0ZM85.88,134.22c-.35,0-1.05-.14-2.14-.97,1.09-.83,1.79-.97,2.14-.97.85,0,.9.8.9.97s-.04.97-.9.97ZM82.47,131.98c-1.17-1.54-.99-2.32-.89-2.55.16-.36.57-.49.89-.49s.73.13.89.49c.1.22.28,1-.89,2.55Z"/>
                <path class="cls-3" d="M82.47,137.57c-.32,0-.73-.13-.89-.49-.1-.22-.28-1,.89-2.55,1.17,1.54.99,2.32.89,2.55-.16.36-.57.49-.89.49ZM79.05,134.22c-.35,0-.6-.13-.75-.4-.19-.33-.19-.81,0-1.14.15-.27.4-.4.75-.4s1.05.14,2.14.97c-1.09.83-1.79.97-2.14.97h0ZM85.88,134.22c-.35,0-1.05-.14-2.14-.97,1.09-.83,1.79-.97,2.14-.97.85,0,.9.8.9.97s-.04.97-.9.97ZM82.47,131.98c-1.17-1.54-.99-2.32-.89-2.55.16-.36.57-.49.89-.49s.73.13.89.49c.1.22.28,1-.89,2.55Z"/>
              </g>
            </g>
            <g class="cls-12">
              <path class="cls-5" d="M144.4,112.19c-1.73-.06-4.73-.99-9.5-4.88-.14-.13-.57-.58-.89-.91-2.65-2.73-3.75-3.86-5.87-3.86h-.41c.37-.34.71-.69,1.04-1.03.14.15.27.27.39.39l.12.11.13.1c.33.26.73.61,1.15.98,1.27,1.12,2.72,2.38,4.41,3.16l3.86,1.79,1.91-3.81c.96-1.92.64-3.62.49-4.44,0-.05-.02-.1-.03-.16-.03-1.21-.01-2.44,0-3.73.02-1.75.05-3.57-.05-5.41l-.12-2.47-2.18-1.18c-2.5-1.35-3.24-4.12-3.11-6.07.07-1.08.54-3.7,3.37-4.82.31-.1,1.33-.33,3.83-.33.66,0,1.33.02,1.99.04-.79,6.59-.33,13.53.11,20.28.35,5.22.67,10.15.44,14.76v.23s0,.18,0,.18c-.14.27-.6.69-1.08,1.08ZM113.98,110.93c.19-3,.1-6.22.02-9.34-.05-1.98-.11-3.85-.09-5.6.02-1.59.1-3.49.2-5.5.24-5.25.52-11.21-.28-15.58-.17-.96-.59-2.44-1.58-3.85,1.27.32,2.28.87,3.04,1.65,3.2,3.29,2.97,11.19,2.78,18.16-.11,3.77-.21,7.34.16,10.54l.73,6.46,3.34-1.8c-2.55,2.01-5.38,3.94-8.31,4.87ZM88.94,72.6c-.23-.25-.48-.48-.72-.69,3.34-3.66,7.29-7.25,11.48-10.07-.09.13-.18.25-.26.35-3.85,3.16-7.26,6.77-10.5,10.41ZM133.67,63.97c-3.52-.08-7.3-1.58-11.24-4.48l-.34-.25-.39-.18c-1.98-.93-3.94-1.48-5.82-1.64l.92-1.08c2.03.24,3.94.87,5.78,1.92,4.07,3.31,7.79,5.22,11.09,5.7ZM142.98,59.36c.47-1.04.73-2.21.73-3.46,0-4.16-3.08-8.46-8.28-8.81.6-.35,1.31-.58,2.01-.64,5.13.8,7.8,3.52,7.51,7.67-.12,1.79-.81,3.64-1.97,5.24Z"/>
              <path class="cls-5" d="M26.9,112.54c-.98,0-2.03-.2-3.02-.65.19.02.39.02.58.02,2.96,0,6.63-2.02,7.21-7.73v-.1s1.01-18.09,1.01-18.09l-.21.1c.04-.57.09-1.15.14-1.75.36-4.29.76-9.15-.53-13.36-.58-1.9-1.63-4.02-3.49-5.78,2.8.64,5.34,2.24,6.99,4.46,1.11,1.5,2.3,3.97,1.64,7.2l-1.04,5.14,25.13.61s.56-4,.56-4.06c.87.77,1.83,1.46,2.72,2.1.28.2.6.43.89.64-.04.31-.08.64-.1,1.01l-.03.61.12.52c0,1.3-2.32,4.98-3.44,6.75-.17.26-.33.52-.49.78.02-1.01.05-2,.07-2.99l.11-4.3-4.3-.2c-.64-.03-1.28-.06-1.93-.09-3.21-.16-6.52-.32-9.82-.32-1.67,0-3.18.04-4.61.13l-3.37.2-.68,3.3c-.4,1.95-.38,3.87-.37,5.57,0,1.04.02,2.03-.07,2.9l-.04.38.03.38c.46,5.95-.8,10.86-3.54,13.82-1.69,1.82-3.86,2.83-6.13,2.83h0ZM52.81,111.69s.06,0,.09.01v.04s-.06-.03-.09-.05ZM40.21,56.21c-.13,0-.27,0-.41-.02-.57-.06-1.84-.7-2.76-1.17-1.57-.79-3.33-1.68-5.24-1.91l.38-.62c.47-.71.93-.96,1.74-.96s1.93.31,3.07.87c.34.17.79.45,1.26.74,1.18.74,2.68,1.69,4.53,2.11-.79.62-1.69.96-2.56.96Z"/>
              <path class="cls-5" d="M95.64,52c.38-2.89.94-5.54,1.66-7.94,4.97-9.99,1.53-16.78-3.95-22.02,3.59,2.49,5.85,4.47,6.62,7.85l1.08,4.8,2.6-.91c-2.8,4.41-3.76,10.34-4.49,14.8-.08.49-.16.98-.24,1.44-.53.32-1.07.65-1.63.98-.55.33-1.11.66-1.67,1ZM73.05,42.03c-.13-.05-.26-.11-.38-.16l-.13-.05-.13-.04c-.56-.18-1.1-.31-1.59-.41-.48-2.21-1.24-4.95-2.51-7.47l1.69,1,1.56-5.49c1.05-3.7,3.72-5.63,7.97-8.27-6.06,5.24-9.58,10.7-6.47,20.89ZM85.04,17.5c.35-.26.7-.54,1.04-.82.31.28.63.55.95.82h-1.99Z"/>
              <path class="cls-5" d="M78.3,147.8c-4.48-1.38-9.07-4.91-12.37-8.32,0,0-.01-.02-.02-.03l2.65-1.18c2.2,3.72,5.5,6.95,9.74,9.53ZM85.93,147.58c12.08-6.26,15.2-21.44,11.99-34.72.12-.2.25-.39.37-.59.62-.99,1.25-1.98,1.86-3,2.1,5.76,3.08,12.28,2.64,18.31l-.03.45.06.45c.18,1.33.81,2.37,1.65,3.21l-1.65-.44-1.56,3.34c-2.68,5.73-8.65,10.76-15.33,12.98Z"/>
              <path class="cls-5" d="M85.74,87.52c-7.82-10.13-18.01-19.05-28.09-24.45.19-.28.38-.57.56-.85.99,1.25,2.56,2.04,4.09,2.82.23.12.43.22.57.29,7.94,5.05,17.62,11.84,23.13,20.11-.05.68-.13,1.37-.25,2.07ZM74.24,56.03c-1.37,0-3.11-.61-5.02-1.76l-.26-.16-.28-.12c-1.47-.62-2.89-.95-4.24-.96.94-.94,1.85-1.45,2.82-1.45s2.77.43,5.71,2.49l.37.26.41.18c.81.35,1.66.68,2.57.91-.61.42-1.29.62-2.08.62Z"/>
              <path class="cls-5" d="M68.14,126.62c2.03-1.43,4.09-3.03,6.18-4.79.07.08.13.16.2.24-1.95,1.54-4.1,3.11-6.38,4.55Z"/>
              <path class="cls-5" d="M62.32,118.03c1.7-9.65,5.95-19.61,12.09-28.22.41.48.82.97,1.19,1.44-4.41,7.88-7.49,15.72-9.37,23.84-1.14.89-2.5,1.93-3.91,2.94Z"/>
              <path class="cls-5" d="M89.38,106.86c-.2-.2-.37-.39-.53-.56,2.48-3.66,4.22-7.03,5.4-10.43,1.95-5.64,2.43-11.17,2.58-16.36.37-.49.83-1.05,1.34-1.65-.18,11.62-3.34,21.99-8.79,29Z"/>
              <path class="cls-5" d="M88.48,121.17c-2.58-2.21-5.15-4.73-7.32-7.19-.95-1.08-2.16-2.5-2.9-3.43.05-.22.12-.46.19-.71,1.88,2.4,3.82,4.59,5.83,6.63.51.51,1.1,1.03,1.73,1.57.68.59,1.9,1.65,2.33,2.22.06.3.1.6.14.91Z"/>
              <g>
                <path class="cls-5" d="M94.17,35.44c-6.49,0-8.02,1.53-8.02,8.02,0-6.49-1.53-8.02-8.02-8.02,6.49,0,8.02-1.53,8.02-8.02,0,6.49,1.53,8.02,8.02,8.02Z"/>
                <path class="cls-5" d="M94.17,35.44c-6.49,0-8.02,1.53-8.02,8.02,0-6.49-1.53-8.02-8.02-8.02,6.49,0,8.02-1.53,8.02-8.02,0,6.49,1.53,8.02,8.02,8.02Z"/>
              </g>
            </g>
          </g>
          <g>
            <g>
              <path d="M248.2,63.49c-1.78.2-3.17,1.97-4.51,2.57-.58.27-.76.38-1.13-.25l-12.8-38.32c-1.78.8-2.4,2.29-1.96,4.21l12.52,35.94c.22.5.08.76-.24,1.17-.49.63-4.92,3.93-5.52,3.41l-9.55-27.66-.95-.64-13.7,37.69.44.88,12.34,3.19c-1.35,1.25-1.99,4.3-3.87,4.38-1.96.08-7.97-1.94-10.18-2.66-1.01-.33-5.33-1.5-5.55-2.24,5.19-16.15,11.91-31.8,17.33-47.86.39-1.17,1.22-3.04,1.36-4.13.21-1.64-2.07.17-2.53.67l-18.49,50.68c-6.98-1.37-13.63-4.91-20.85-2.35-3.37,1.19-7.14,4.45-6.77,8.3,5.5-10.02,17.58-6.18,26.26-3.19-4.69,10.08-6.81,24.79-13.92,33.33-1.97,2.37-4.7,3.99-6.63,6.38,1.88-.15,3.95-1.43,5.44-2.55,1.17-.88,5.2-5.63,5.75-5.67,0,4,2.02,8.68,6.63,8.67-3.58-3.42-4.64-7.6-4.06-12.5l9.11-26.74,16.41,4.55-2.56,5.06-10-3.17c-.53.27-.68.82-.91,1.31-1.92,4.02-6.81,18.01-7.09,22.12-.39,5.59,1.01,9.22,5.5,12.57h-7.54c-2.37,0-6.2-2.15-7.76-4-2.12,1.51-6.57,4-9.14,4s-9.05.49-10.97,0c-.17-.04-.81-.78-.68-.91,15.74-5.68,19.56-24.98,24.69-39.05l-.3-.72c-4.22-1.53-9.72-3.07-13.59.12-2.18,1.8-2.66,6.27.48,6.7,1.16.16,3.42-1.2,3.32,1.63-.16,4.58-5.7,5.4-8.9,3.02-5.83-4.33-3.57-13.41.45-18.26,5.73-6.91,14.92-6.69,23.03-5.05,3.43-10.02,7.59-19.84,11.02-29.86,1.58-4.6,5.57-12.07.15-15.23-.57-.34-4.25-1.03-3.36-1.89,7.29-1.5,14.37-4.08,20.86-7.68,5.75-3.19,11.23-8.84,18.42-7.62-8.51,6.7-5.7,16.5-2.95,25.32.89,2.85,8.1,21.33,7.46,22.33Z"/>
              <path d="M283.88,133.6c-1.41,4.68-8.01,12.52-11.91,15.49-22.93,17.44-56.59,3.04-58-25.96-1.39-28.77,25.35-57.65,52.55-63.7l-.06,4.95c-14.33,4.25-27.47,14.13-36.12,26.21-8.62,12.03-14.17,28.46-8.47,42.9,9.79,24.82,44.01,24.35,54.7.56,2.24-.13,4.45-.83,6.66-1.12.62-.08.86-.05.65.66Z"/>
              <path d="M283.88,129.73c-5.22,1.48-9.88,1.62-15.17.32-1.45-.36-5.59-2.49-6.15-2.52-.44-.03-3.37,1.86-4.47,2.22-4.52,1.49-9.4,1.01-13.95-.03.55-1.07,1.83-1.23,2.75-2.04,7.76-6.87-.97-22.06-3.25-30.1-.76-1.34-2.48-.34-3.61-.95l7.08-7.99c.97-.16.54.15.72.62,3.55,9.04,6.44,18.36,10.11,27.35.45.97,2.23,1.81,2.61.49.64-2.22-10-26.35-10.86-30.62l5.41-4.24c3.32,9.11,6.73,18.5,10.75,27.37,4.39,9.69,7.51,14.7,17.39,19.14.54.25.82-.21.64.96Z"/>
              <path d="M273.37,134.07c-3.68,7.76-11.17,13.44-19.61,15.09-15.14,2.96-29.8-8.07-31.5-23.36-2.86-25.75,20.66-51.77,44.26-58.61l-.04,5.89c-6.39,1.65-12.52,5.46-17.53,9.64-8.35,6.97-17.04,17.18-19.88,27.83,7.55-3.46,14.24,4.83,7.53,10.49-.93.38-.75-1.54-1.38-2.27-2.35-2.75-7.39-.2-7.95,3.44-1.13,7.28,2.08,14.25,7.49,18.93,11.1,9.6,26.43,4.91,31.82-8.16l6.78,1.07Z"/>
              <path d="M286.14,58.67c-.22-6.97.7-13.6,6.41-18.19,1.89-1.51,3.84-1.87,5.49-3.41h-8.45c-1.3,0-5.23,1.07-6.61,1.6-1.98.75-3.73,2.01-5.33,3.38-5.43-4.52-12.16-4.63-18.88-3.61l4.53,2.55c6,4.51,6.16,12.19,6.45,19.11.65,15.49-1.67,32.02-.47,47.49.44,5.67,3.47,9.53,7.3,13.47v-63.22c0-3.24-2.93-10.19-5.03-12.77-1.15-1.41-3.05-2.25-3.64-3.89,4.92,1.05,7.99,5.19,9.82,9.59,1.76-3.72,3.93-8.42,8.45-9.13.04.69-.87.57-1.38,1.13-2.68,2.96-5.11,7.89-5.47,11.88-1.91,21.37,1.44,45.46-.03,67.12-.11,3.1,4.55,3.78,6.88,4.77v-54.33c4.92.15,11.65,2.57,12.93,7.85.5,2.05.69,5.11-.85,6.74-2,2.13-4.98-1.02-6.3,3.3-1.07,3.48,2.02,6.61,5.43,6.79,5.87.31,9.76-6.07,10.26-11.21,1.27-13.19-9.6-23.7-21.48-27.01ZM303.92,84.26c-.24,2.1-1.66,6.18-4.05,6.66,5.06-8.95,1.18-17.07-7.3-21.68-1.22-.67-6.24-2.43-6.4-3.2l.75-1.08c9.17.8,18.11,9.69,17,19.3Z"/>
              <path d="M303.92,84.26c-.24,2.1-1.66,6.18-4.05,6.66,5.06-8.95,1.18-17.07-7.3-21.68-1.22-.67-6.24-2.43-6.4-3.2l.75-1.08c9.17.8,18.11,9.69,17,19.3Z"/>
            </g>
            <g>
              <path class="cls-8" d="M248.2,63.49c-1.78.2-3.17,1.97-4.51,2.57-.58.27-.76.38-1.13-.25l-12.8-38.32c-1.78.8-2.4,2.29-1.96,4.21l12.52,35.94c.22.5.08.76-.24,1.17-.49.63-4.92,3.93-5.52,3.41l-9.55-27.66-.95-.64-13.7,37.69.44.88,12.34,3.19c-1.35,1.25-1.99,4.3-3.87,4.38-1.96.08-7.97-1.94-10.18-2.66-1.01-.33-5.33-1.5-5.55-2.24,5.19-16.15,11.91-31.8,17.33-47.86.39-1.17,1.22-3.04,1.36-4.13.21-1.64-2.07.17-2.53.67l-18.49,50.68c-6.98-1.37-13.63-4.91-20.85-2.35-3.37,1.19-7.14,4.45-6.77,8.3,5.5-10.02,17.58-6.18,26.26-3.19-4.69,10.08-6.81,24.79-13.92,33.33-1.97,2.37-4.7,3.99-6.63,6.38,1.88-.15,3.95-1.43,5.44-2.55,1.17-.88,5.2-5.63,5.75-5.67,0,4,2.02,8.68,6.63,8.67-3.58-3.42-4.64-7.6-4.06-12.5l9.11-26.74,16.41,4.55-2.56,5.06-10-3.17c-.53.27-.68.82-.91,1.31-1.92,4.02-6.81,18.01-7.09,22.12-.39,5.59,1.01,9.22,5.5,12.57h-7.54c-2.37,0-6.2-2.15-7.76-4-2.12,1.51-6.57,4-9.14,4s-9.05.49-10.97,0c-.17-.04-.81-.78-.68-.91,15.74-5.68,19.56-24.98,24.69-39.05l-.3-.72c-4.22-1.53-9.72-3.07-13.59.12-2.18,1.8-2.66,6.27.48,6.7,1.16.16,3.42-1.2,3.32,1.63-.16,4.58-5.7,5.4-8.9,3.02-5.83-4.33-3.57-13.41.45-18.26,5.73-6.91,14.92-6.69,23.03-5.05,3.43-10.02,7.59-19.84,11.02-29.86,1.58-4.6,5.57-12.07.15-15.23-.57-.34-4.25-1.03-3.36-1.89,7.29-1.5,14.37-4.08,20.86-7.68,5.75-3.19,11.23-8.84,18.42-7.62-8.51,6.7-5.7,16.5-2.95,25.32.89,2.85,8.1,21.33,7.46,22.33Z"/>
              <path class="cls-22" d="M283.88,133.6c-1.41,4.68-8.01,12.52-11.91,15.49-22.93,17.44-56.59,3.04-58-25.96-1.39-28.77,25.35-57.65,52.55-63.7l-.06,4.95c-14.33,4.25-27.47,14.13-36.12,26.21-8.62,12.03-14.17,28.46-8.47,42.9,9.79,24.82,44.01,24.35,54.7.56,2.24-.13,4.45-.83,6.66-1.12.62-.08.86-.05.65.66Z"/>
              <path class="cls-18" d="M283.88,129.73c-5.22,1.48-9.88,1.62-15.17.32-1.45-.36-5.59-2.49-6.15-2.52-.44-.03-3.37,1.86-4.47,2.22-4.52,1.49-9.4,1.01-13.95-.03.55-1.07,1.83-1.23,2.75-2.04,7.76-6.87-.97-22.06-3.25-30.1-.76-1.34-2.48-.34-3.61-.95l7.08-7.99c.97-.16.54.15.72.62,3.55,9.04,6.44,18.36,10.11,27.35.45.97,2.23,1.81,2.61.49.64-2.22-10-26.35-10.86-30.62l5.41-4.24c3.32,9.11,6.73,18.5,10.75,27.37,4.39,9.69,7.51,14.7,17.39,19.14.54.25.82-.21.64.96Z"/>
              <path class="cls-19" d="M273.37,134.07c-3.68,7.76-11.17,13.44-19.61,15.09-15.14,2.96-29.8-8.07-31.5-23.36-2.86-25.75,20.66-51.77,44.26-58.61l-.04,5.89c-6.39,1.65-12.52,5.46-17.53,9.64-8.35,6.97-17.04,17.18-19.88,27.83,7.55-3.46,14.24,4.83,7.53,10.49-.93.38-.75-1.54-1.38-2.27-2.35-2.75-7.39-.2-7.95,3.44-1.13,7.28,2.08,14.25,7.49,18.93,11.1,9.6,26.43,4.91,31.82-8.16l6.78,1.07Z"/>
              <path class="cls-6" d="M286.14,58.67c-.22-6.97.7-13.6,6.41-18.19,1.89-1.51,3.84-1.87,5.49-3.41h-8.45c-1.3,0-5.23,1.07-6.61,1.6-1.98.75-3.73,2.01-5.33,3.38-5.43-4.52-12.16-4.63-18.88-3.61l4.53,2.55c6,4.51,6.16,12.19,6.45,19.11.65,15.49-1.67,32.02-.47,47.49.44,5.67,3.47,9.53,7.3,13.47v-63.22c0-3.24-2.93-10.19-5.03-12.77-1.15-1.41-3.05-2.25-3.64-3.89,4.92,1.05,7.99,5.19,9.82,9.59,1.76-3.72,3.93-8.42,8.45-9.13.04.69-.87.57-1.38,1.13-2.68,2.96-5.11,7.89-5.47,11.88-1.91,21.37,1.44,45.46-.03,67.12-.11,3.1,4.55,3.78,6.88,4.77v-54.33c4.92.15,11.65,2.57,12.93,7.85.5,2.05.69,5.11-.85,6.74-2,2.13-4.98-1.02-6.3,3.3-1.07,3.48,2.02,6.61,5.43,6.79,5.87.31,9.76-6.07,10.26-11.21,1.27-13.19-9.6-23.7-21.48-27.01ZM303.92,84.26c-.24,2.1-1.66,6.18-4.05,6.66,5.06-8.95,1.18-17.07-7.3-21.68-1.22-.67-6.24-2.43-6.4-3.2l.75-1.08c9.17.8,18.11,9.69,17,19.3Z"/>
              <path class="cls-9" d="M303.92,84.26c-.24,2.1-1.66,6.18-4.05,6.66,5.06-8.95,1.18-17.07-7.3-21.68-1.22-.67-6.24-2.43-6.4-3.2l.75-1.08c9.17.8,18.11,9.69,17,19.3Z"/>
            </g>
            <g class="cls-12">
              <path class="cls-5" d="M248.2,63.49c-1.78.2-3.17,1.97-4.51,2.57-.58.27-.76.38-1.13-.25l-12.8-38.32c-1.78.8-2.4,2.29-1.96,4.21l12.52,35.94c.22.5.08.76-.24,1.17-.49.63-4.92,3.93-5.52,3.41l-9.55-27.66-.95-.64-13.7,37.69.44.88,12.34,3.19c-1.35,1.25-1.99,4.3-3.87,4.38-1.96.08-7.97-1.94-10.18-2.66-1.01-.33-5.33-1.5-5.55-2.24,5.19-16.15,11.91-31.8,17.33-47.86.39-1.17,1.22-3.04,1.36-4.13.21-1.64-2.07.17-2.53.67l-18.49,50.68c-6.98-1.37-13.63-4.91-20.85-2.35-3.37,1.19-7.14,4.45-6.77,8.3,5.5-10.02,17.58-6.18,26.26-3.19-4.69,10.08-6.81,24.79-13.92,33.33-1.97,2.37-4.7,3.99-6.63,6.38,1.88-.15,3.95-1.43,5.44-2.55,1.17-.88,5.2-5.63,5.75-5.67,0,4,2.02,8.68,6.63,8.67-3.58-3.42-4.64-7.6-4.06-12.5l9.11-26.74,16.41,4.55-2.56,5.06-10-3.17c-.53.27-.68.82-.91,1.31-1.92,4.02-6.81,18.01-7.09,22.12-.39,5.59,1.01,9.22,5.5,12.57h-7.54c-2.37,0-6.2-2.15-7.76-4-2.12,1.51-6.57,4-9.14,4s-9.05.49-10.97,0c-.17-.04-.81-.78-.68-.91,15.74-5.68,19.56-24.98,24.69-39.05l-.3-.72c-4.22-1.53-9.72-3.07-13.59.12-2.18,1.8-2.66,6.27.48,6.7,1.16.16,3.42-1.2,3.32,1.63-.16,4.58-5.7,5.4-8.9,3.02-5.83-4.33-3.57-13.41.45-18.26,5.73-6.91,14.92-6.69,23.03-5.05,3.43-10.02,7.59-19.84,11.02-29.86,1.58-4.6,5.57-12.07.15-15.23-.57-.34-4.25-1.03-3.36-1.89,7.29-1.5,14.37-4.08,20.86-7.68,5.75-3.19,11.23-8.84,18.42-7.62-8.51,6.7-5.7,16.5-2.95,25.32.89,2.85,8.1,21.33,7.46,22.33Z"/>
              <path class="cls-5" d="M283.88,133.6c-1.41,4.68-8.01,12.52-11.91,15.49-22.93,17.44-56.59,3.04-58-25.96-1.39-28.77,25.35-57.65,52.55-63.7l-.06,4.95c-14.33,4.25-27.47,14.13-36.12,26.21-8.62,12.03-14.17,28.46-8.47,42.9,9.79,24.82,44.01,24.35,54.7.56,2.24-.13,4.45-.83,6.66-1.12.62-.08.86-.05.65.66Z"/>
              <path class="cls-5" d="M283.88,129.73c-5.22,1.48-9.88,1.62-15.17.32-1.45-.36-5.59-2.49-6.15-2.52-.44-.03-3.37,1.86-4.47,2.22-4.52,1.49-9.4,1.01-13.95-.03.55-1.07,1.83-1.23,2.75-2.04,7.76-6.87-.97-22.06-3.25-30.1-.76-1.34-2.48-.34-3.61-.95l7.08-7.99c.97-.16.54.15.72.62,3.55,9.04,6.44,18.36,10.11,27.35.45.97,2.23,1.81,2.61.49.64-2.22-10-26.35-10.86-30.62l5.41-4.24c3.32,9.11,6.73,18.5,10.75,27.37,4.39,9.69,7.51,14.7,17.39,19.14.54.25.82-.21.64.96Z"/>
              <path class="cls-5" d="M273.37,134.07c-3.68,7.76-11.17,13.44-19.61,15.09-15.14,2.96-29.8-8.07-31.5-23.36-2.86-25.75,20.66-51.77,44.26-58.61l-.04,5.89c-6.39,1.65-12.52,5.46-17.53,9.64-8.35,6.97-17.04,17.18-19.88,27.83,7.55-3.46,14.24,4.83,7.53,10.49-.93.38-.75-1.54-1.38-2.27-2.35-2.75-7.39-.2-7.95,3.44-1.13,7.28,2.08,14.25,7.49,18.93,11.1,9.6,26.43,4.91,31.82-8.16l6.78,1.07Z"/>
              <path class="cls-5" d="M286.14,58.67c-.22-6.97.7-13.6,6.41-18.19,1.89-1.51,3.84-1.87,5.49-3.41h-8.45c-1.3,0-5.23,1.07-6.61,1.6-1.98.75-3.73,2.01-5.33,3.38-5.43-4.52-12.16-4.63-18.88-3.61l4.53,2.55c6,4.51,6.16,12.19,6.45,19.11.65,15.49-1.67,32.02-.47,47.49.44,5.67,3.47,9.53,7.3,13.47v-63.22c0-3.24-2.93-10.19-5.03-12.77-1.15-1.41-3.05-2.25-3.64-3.89,4.92,1.05,7.99,5.19,9.82,9.59,1.76-3.72,3.93-8.42,8.45-9.13.04.69-.87.57-1.38,1.13-2.68,2.96-5.11,7.89-5.47,11.88-1.91,21.37,1.44,45.46-.03,67.12-.11,3.1,4.55,3.78,6.88,4.77v-54.33c4.92.15,11.65,2.57,12.93,7.85.5,2.05.69,5.11-.85,6.74-2,2.13-4.98-1.02-6.3,3.3-1.07,3.48,2.02,6.61,5.43,6.79,5.87.31,9.76-6.07,10.26-11.21,1.27-13.19-9.6-23.7-21.48-27.01ZM303.92,84.26c-.24,2.1-1.66,6.18-4.05,6.66,5.06-8.95,1.18-17.07-7.3-21.68-1.22-.67-6.24-2.43-6.4-3.2l.75-1.08c9.17.8,18.11,9.69,17,19.3Z"/>
              <path class="cls-5" d="M303.92,84.26c-.24,2.1-1.66,6.18-4.05,6.66,5.06-8.95,1.18-17.07-7.3-21.68-1.22-.67-6.24-2.43-6.4-3.2l.75-1.08c9.17.8,18.11,9.69,17,19.3Z"/>
            </g>
          </g>
          <rect class="cls-1" x="1" y="1" width="317.07" height="170" rx="26.76" ry="26.76"/>
        </g>
      </g>
    </g>
  </g>
</svg>
