<?xml version="1.0" encoding="UTF-8"?>
<svg id="Layer_2" data-name="Layer 2" xmlns="http://www.w3.org/2000/svg" viewBox="0 0 376.42 394.69">
  <defs>
    <linearGradient id="mark-grad" x1="0" y1="0" x2="376.42" y2="394.69" gradientUnits="userSpaceOnUse">
      <stop offset="0" stop-color="#8B2040"/>
      <stop offset=".47" stop-color="#D4556E"/>
      <stop offset="1" stop-color="#6B1228"/>
    </linearGradient>
  </defs>
  <g id="Layer_1-2" data-name="Layer 1">
    <g fill="url(#mark-grad)">
      <g>
        <path d="M373.14,175.64c2.5-4.48,7.17-5.54-2.93-6.21-8.1-.54-23.11-1.55-30.4.95-23.11,8.78-22.61,41.42-2.41,52.34.42,8.42-.1,16.87.11,25.29.06,2.28,1.23,4.29.02,6.72-4.41-2.04-9.07-6.9-12.96-9.97-1.68-1.54-8.24-9.47-9.44-9.47-5.79,5.01-9.99,11.89-17,15.67-3.91-34.52,14.01-97.42-39.38-95.79,5.81-14.27,19.05-15.09,31.75-9.12,70.7,51.92,115.69-49.07,49.45-58.14-14.74.1-28.44,14.09-20.72,28.86,2.81,5.37,3.88-.48,7.49-2.1,27.67-7.39,24.92,46.65-21.64,8.16-42.13-25.12-91.95,15.98-118.06,47.56-.31,4.04,7.4,8.07,9.91,11.48,1.24,1.35,7.01,9.31,8.01,9.14,11.75-13.5,23.67-27.29,37.58-38.55,4.13-4.48,6.82-12.28,14.03-13.76-7.35,8.6-12.36,19.5-12.42,30.99,8.58-.26,16.06,2,17.78,11.42,2.75,15.1.19,40.06.02,56.06-.15,13.72,1.2,29.89.04,43.22-3.85,13.81-4.75,12.89,9.83,11.45,15.96-2.82,29.7-14.1,41.7-24.17,1.1,0,9.09,8.76,10.81,10.26,10.17,8.33,25.2,18.42,38.78,16.14,4.96-3.68,11-8.22,10.61-15.34,1.65-32.89-6.37-70.93-.58-103.07Z"/>
        <path d="M72.02,236.13c.72-7.3-.43-15.09,1.02-22.18,14.31-.85,29.72.13,44.05.81-.36,13.49-.54,27.78-1.36,41.34-.34,4.09-1.35,12.11-6.22,12.67-12.7,1.46-11.47-14.67-7.94-22.51,3.19-7.1,10.52-7.01,8.74-16.63-.62-3.36-6.99.51-8.8,1.46-30.49,15.13-21.7,63.7,12.61,64.42,4.15-19.64,11.1-39.13,20.19-56.98,5.1-10.58,20-28.06,17.53-38.6.14-2.97,1.62-6.99-.5-9.71-3.82-3.86-12.37-8.52-15.99-13.13,0,0-16.21-10.27-16.21-10.27-2.04-.19-.71,3.11-.7,4.5.15,5.56.17,11.1-.57,16.48l-44.25-1.07c4.98-24.58-15.27-45.21-38.84-47.51-.71-4.27,5.11-8.44,8.91-8.64,6.63-.36,15.95,7.71,23.79,8.6,17.43,1.99,31.83-17.2,27.19-33.4-3.11.24-3.75,3.82-6.63,5.51-8.3,4.87-15.02-2.36-21.61-5.6-10.26-5.05-22.07-6.02-28.98,4.67l-25.79,42.23-.1,1.23c33.31,3.13,25.89,35.5,24.56,59.38C14.13,222.79-2.39,240.74.28,266.26c9.09,45.49,77.06,39.17,71.74-30.13ZM34.21,258.76c-.58,5.64-2.99,11.66-9.74,10.29-10.54-2.14-7.99-17.5-4.39-24.42,3.21-6.16,9.47-12.3,15.75-15.28l-1.62,29.4Z"/>
        <path d="M120.32,85.28c3.1-3.2,5.27-10.22,1.9-13.8-2.29-2.44-3.13,1.4-4.6,2.47-2.79,2.03-8.15.94-9.92-1.98-4.17-6.89,3.15-13.56,9.9-14.22,18.8-1.86,24.35,24.8,26.71,38.6,3.75,1.14,7.24,1.16,11.08,2.41,6.25,2.49,14.01,7.56,20.46,8.62,2.54-2.69-.59-12.5-.92-16.29-11.45-29.51-3.55-40.21,20.67-58.98h2.14c21.72,16.23,32.32,31.05,19.06,56.83-4.96,15.87-6.86,33.8-7.17,50.3,4.64.07,10.34-7.24,14.72-9.83,6.27-4.28,13.02-7.76,19.32-11.99,3.43-16.72,5.11-49.53,24.49-55.93,8.13-2.68,18.43,1.33,17.57,11.09-.53,6.05-8.11,8.43-12.18,4.08-1.23-1.31-1.67-4.72-3.4-2.38-4.43,6-.54,14.44,5.65,17.39,45.08,13.3,36.05-62.57-28.42-40.1-6.04-26.77-35.74-31.08-49.9-51.57-15.54,19.92-44.86,23-52.41,49.6-20.17-11.94-60.25-4.12-56.83,25.08,1.62,13.84,22.4,20.61,32.07,10.6Z"/>
        <path d="M291.3,297.27c-9.45,4.82-11.76,18.22-2.6,24.37,1.22-.06.64-6.49,4.67-7.72,7.07-2.16,11.4,4.01,10.04,10.58-5.88,13.66-24.87,12.92-36.71,8.35-2.89-1.06-10.8-3.96-11.23-7.12,1.91-26.79-5.01-56.41-19.13-78.55-5.03,12.45-12.61,23.56-19.62,34.94,9.64,32.9,4.1,76.82-31.94,90.06-13.66-7.58-25.24-18.6-30.28-33.72l-29.59,13.18c-3.81,1.53,5.59,11.6,6.71,13.74,15.54,16.4,43.08,35.94,66.53,27.12,21.56-6.48,42.43-22.73,51.94-43.08,79.79,21.49,88.64-64.86,41.19-52.14Z"/>
        <path d="M144.06,132.2c46.46,27.96,52.71-43.13,38.77-21.12-4.8,4.04-9.84,2.46-15.13.18-38.88-27.24-45.73,12.97-66.48,37.49-3.1,3.74,4.75,4.39,7.3,6.04,35.82,17.88,70.42,52.24,91.11,85.36,5.83-10.3,9.42-23.62,9.48-35.38-15.89-25.96-44.56-46.57-70.02-62.75-1.91-1.17-9.75-4.58-9.91-6.34,2.53-6.57,9.29-5.86,14.88-3.49Z"/>
        <path d="M176.15,303.58c-3.09-2.35-7.72-11.3-10.94-11.56-12.13,11.13-25.85,21.95-40.31,29.91-14.08,7.75-34.78,16.77-49.62,6.42-4.75-3.31-6.89-6.71-5.85-12.78,1.2-7.03,11.1-7.61,13.5-1.88.63,1.51-.14,5.49,1.69,5.21,25.21-23.27-27.51-45.43-32.58-5.61-1.11,19.37,17.55,32.56,34.61,36.07,35.21,7.24,69.47-16.1,94.94-37.66,2.28-3.1-3.46-6.03-5.45-8.12Z"/>
        <path d="M181.47,222.17c-3.77-5.99-12.52-16.23-18.21-20.08-26.32,32.11-45.55,75.75-46.46,118.48,11.58-4.17,26.11-15.51,36.18-23.45,5.51-25.93,15.5-49.87,28.89-72.62.48-.97-.03-1.53-.4-2.33Z"/>
        <path d="M237.39,162.95c-6.41,5.2-18.61,18.2-22.67,24.83-.3,15.62-1.45,30.43-6.57,45.24-4.13,11.95-10.89,22.81-18.43,32.9,2.13,5.31,13.04,15.33,17.03,18.97,28.17-26.78,37.37-70.96,35.77-109.22-.38-2.03-2.02-2.02-3.76-1.91l.54-11.33c-.84-.16-1.25.08-1.91.51Z"/>
        <path d="M174.27,295.21c8.36,9.47,18.95,19.45,28.94,27.19,1.68,1.3,9.6,7.86,11.23,6.75,1.94-9.12,2.52-19.08.53-28.22-1.36-5.22-10.33-11.46-14.25-15.43-9.81-9.93-18.27-20.67-26.06-32.23-1.62-2.39-2.85-.2-3.82,1.77-2.43,6.17-8.77,19.63-7.86,26.09.68,1.84,9.36,11.86,11.31,14.07Z"/>
      </g>
      <path d="M219.44,69.61c-17.98,0-22.21,4.23-22.21,22.21,0-17.98-4.23-22.21-22.21-22.21,17.98,0,22.21-4.23,22.21-22.21,0,17.98,4.23,22.21,22.21,22.21Z"/>
      <path d="M185.51,342.06c20.9-20.9,20.9,17.86,0-3.04,20.9,20.9-17.86,20.9,3.04,0-20.9,20.9-20.9-17.86,0,3.04-20.9-20.9,17.86-20.9-3.04,0Z"/>
    </g>
  </g>
</svg>
